<?xml version="1.0" encoding="UTF-8" standalone="no"?>
<!-- Created with Serif DrawPlus 11, 0, 3, 23 (Feb 25, 14:12:55) (http://www.serif.com) -->
<svg version="1.1" xmlns="http://www.w3.org/2000/svg" xmlns:xlink="http://www.w3.org/1999/xlink" width="203.763" height="255.025">
	<g id="dp_group001" transform="matrix(1,0,0,1,-244.937,-250.233)">
		<g id="dp_group002">
			<g id="dp_group003">
				<path id="dp_path004" fill="black" fill-rule="evenodd" d="M 250.328,430.156 L 250.32,428.823 L 251.637,426.148 L 245.657,429.517 L 251.677,432.815 Z "/>
				<path id="dp_path005" fill="black" d="M 247.124,337.123 L 247.152,333.923 L 245.819,333.912 L 245.791,337.112 Z M 247.18,330.723 L 247.208,327.523 L 245.875,327.512 L 245.847,330.712 Z M 247.236,324.323 L 247.264,321.123 L 245.931,321.112 L 245.903,324.312 Z M 247.292,317.923 L 247.32,314.723 L 245.987,314.712 L 245.959,317.912 Z M 247.348,311.523 L 247.376,308.323 L 246.043,308.312 L 246.015,311.512 Z M 247.404,305.123 L 247.432,301.923 L 246.099,301.912 L 246.071,305.112 Z M 247.46,298.723 L 247.488,295.523 L 246.155,295.512 L 246.127,298.712 Z M 247.516,292.323 L 247.543,289.123 L 246.209,289.112 L 246.183,292.312 Z M 247.571,285.923 L 247.597,282.723 L 246.264,282.712 L 246.237,285.912 Z M 247.625,279.523 L 247.652,276.323 L 246.319,276.312 L 246.292,279.512 Z M 247.68,273.123 L 247.707,269.923 L 246.373,269.912 L 246.347,273.112 Z M 247.735,266.723 L 247.761,263.523 L 246.428,263.512 L 246.401,266.712 Z M 247.789,260.323 L 247.816,257.123 L 246.483,257.112 L 246.456,260.312 Z M 247.844,253.923 L 247.855,252.624 L 247.188,252.619 L 246.692,253.064 L 247.96,254.48 L 248.952,253.589 L 246.536,250.891 L 246.511,253.912 Z M 250.095,256.864 L 252.229,259.248 L 253.221,258.357 L 251.087,255.973 Z M 254.364,261.632 L 256.499,264.016 L 257.491,263.125 L 255.356,260.741 Z M 258.633,266.4 L 260.768,268.784 L 261.76,267.893 L 259.625,265.509 Z M 262.903,271.168 L 265.037,273.552 L 266.029,272.661 L 263.895,270.277 Z M 267.172,275.936 L 269.307,278.32 L 270.299,277.429 L 268.164,275.045 Z M 271.441,280.704 L 273.576,283.088 L 274.568,282.197 L 272.433,279.813 Z M 275.711,285.472 L 277.845,287.856 L 278.837,286.965 L 276.703,284.581 Z M 279.98,290.24 L 282.115,292.624 L 283.107,291.733 L 280.972,289.349 Z M 284.249,295.008 L 286.384,297.392 L 287.376,296.501 L 285.241,294.117 Z M 288.519,299.776 L 290.653,302.16 L 291.645,301.269 L 289.511,298.885 Z M 292.788,304.544 L 294.923,306.928 L 295.915,306.037 L 293.78,303.653 Z M 297.057,309.312 L 299.192,311.696 L 300.184,310.805 L 298.049,308.421 Z M 301.327,314.08 L 303.461,316.464 L 304.453,315.573 L 302.319,313.189 Z M 305.596,318.848 L 307.731,321.232 L 308.723,320.341 L 306.588,317.957 Z M 309.865,323.616 L 312,326 L 312.992,325.109 L 310.857,322.725 Z M 314.135,328.384 L 316.269,330.768 L 317.261,329.877 L 315.127,327.493 Z M 318.404,333.152 L 320.539,335.536 L 321.531,334.645 L 319.396,332.261 Z M 322.673,337.92 L 324.808,340.304 L 325.8,339.413 L 323.665,337.029 Z M 326.943,342.688 L 329.077,345.072 L 330.069,344.181 L 327.935,341.797 Z M 331.212,347.456 L 333.347,349.84 L 334.339,348.949 L 332.204,346.565 Z M 335.481,352.224 L 337.616,354.608 L 338.608,353.717 L 336.473,351.333 Z M 339.751,356.992 L 341.885,359.376 L 342.877,358.485 L 340.743,356.101 Z M 344.02,361.76 L 346.155,364.144 L 347.147,363.253 L 345.012,360.869 Z M 348.289,366.528 L 350.424,368.912 L 351.416,368.021 L 349.281,365.637 Z M 352.559,371.296 L 354.693,373.68 L 355.685,372.789 L 353.551,370.405 Z M 356.828,376.064 L 358.963,378.448 L 359.955,377.557 L 357.82,375.173 Z M 361.096,380.831 L 363.229,383.216 L 364.224,382.328 L 362.091,379.943 Z M 363.196,384.539 L 362.832,384.867 L 362.06,385.545 L 361.285,386.221 L 360.797,386.641 L 361.669,387.649 L 362.157,387.227 L 362.937,386.548 L 363.715,385.861 L 364.084,385.533 Z M 358.151,388.873 L 357.359,389.525 L 356.564,390.171 L 355.764,390.811 L 355.676,390.88 L 356.503,391.925 L 356.593,391.853 L 357.399,391.208 L 358.201,390.557 L 358.999,389.903 Z M 353.164,392.844 L 352.535,393.324 L 351.72,393.941 L 350.901,394.552 L 350.616,394.761 L 351.408,395.833 L 351.693,395.621 L 352.52,395.005 L 353.34,394.385 L 353.972,393.903 Z M 348.035,396.631 L 347.595,396.944 L 346.761,397.528 L 345.924,398.109 L 345.419,398.453 L 346.171,399.555 L 346.679,399.205 L 347.521,398.621 L 348.363,398.032 L 348.805,397.719 Z M 342.544,400.377 L 341.692,400.935 L 340.837,401.483 L 339.977,402.028 L 339.86,402.101 L 340.569,403.229 L 340.689,403.153 L 341.552,402.605 L 342.415,402.052 L 343.272,401.495 Z M 337.145,403.773 L 336.517,404.153 L 335.644,404.672 L 334.769,405.184 L 334.401,405.396 L 335.071,406.551 L 335.439,406.336 L 336.321,405.819 L 337.2,405.295 L 337.833,404.915 Z M 331.628,406.969 L 331.241,407.185 L 330.353,407.672 L 329.461,408.153 L 328.565,408.631 L 329.192,409.807 L 330.091,409.327 L 330.988,408.843 L 331.884,408.351 L 332.276,408.135 Z M 325.737,410.095 L 324.968,410.483 L 324.061,410.932 L 323.152,411.377 L 322.88,411.508 L 323.459,412.708 L 323.733,412.575 L 324.648,412.127 L 325.563,411.675 L 326.337,411.284 Z M 319.999,412.868 L 319.493,413.101 L 318.572,413.52 L 317.649,413.931 L 317.089,414.176 L 317.625,415.397 L 318.188,415.149 L 319.119,414.733 L 320.045,414.312 L 320.553,414.081 Z M 313.935,415.525 L 313,415.912 L 312.064,416.292 L 311.125,416.665 L 310.98,416.721 L 311.465,417.964 L 311.613,417.905 L 312.56,417.527 L 313.504,417.144 L 314.444,416.757 Z M 308.003,417.864 L 307.351,418.108 L 306.401,418.455 L 305.451,418.796 L 305.005,418.953 L 305.451,420.209 L 305.896,420.052 L 306.855,419.708 L 307.812,419.359 L 308.469,419.115 Z M 301.991,419.985 L 301.628,420.108 L 300.668,420.421 L 299.705,420.729 L 298.739,421.032 L 299.139,422.304 L 300.108,421.999 L 301.076,421.688 L 302.044,421.372 L 302.412,421.252 Z M 295.689,421.948 L 294.867,422.187 L 293.895,422.461 L 292.92,422.729 L 292.62,422.809 L 292.967,424.097 L 293.269,424.015 L 294.252,423.744 L 295.232,423.467 L 296.06,423.228 Z M 289.535,423.616 L 289.005,423.749 L 288.023,423.989 L 287.039,424.225 L 286.436,424.364 L 286.737,425.663 L 287.343,425.521 L 288.335,425.285 L 289.325,425.043 L 289.86,424.909 Z M 283.089,425.107 L 282.096,425.315 L 281.104,425.515 L 280.108,425.711 L 279.963,425.737 L 280.213,427.047 L 280.361,427.017 L 281.363,426.821 L 282.363,426.619 L 283.361,426.413 Z M 276.828,426.309 L 276.119,426.431 L 275.119,426.597 L 274.117,426.759 L 273.683,426.824 L 273.883,428.141 L 274.323,428.073 L 275.332,427.912 L 276.34,427.745 L 277.052,427.624 Z M 270.527,427.283 L 270.097,427.341 L 269.089,427.472 L 268.08,427.597 L 267.068,427.716 L 267.225,429.041 L 268.24,428.92 L 269.257,428.795 L 270.273,428.661 L 270.705,428.603 Z M 263.901,428.052 L 263.023,428.136 L 262.008,428.224 L 260.992,428.309 L 260.728,428.328 L 260.827,429.659 L 261.096,429.637 L 262.12,429.552 L 263.143,429.461 L 264.027,429.38 Z M 257.545,428.548 L 256.92,428.585 L 255.9,428.64 L 254.881,428.688 L 254.363,428.708 L 254.419,430.041 L 254.937,430.019 L 255.967,429.971 L 256.995,429.916 L 257.625,429.879 Z M 251.175,428.811 L 250.795,428.821 L 250.32,428.823 L 250.328,430.156 L 250.813,430.152 L 251.207,430.144 Z "/>
			</g>
		</g>
		<path id="dp_path006" fill="white" fill-rule="evenodd" stroke="black" stroke-width="1.33333" d="M 385.113,407.659 C 379.225,412.969 371.557,415.879 363.628,415.809 L 363.904,384.144 Z "/>
		<g id="dp_group007">
			<g id="dp_group008">
				<path id="dp_path009" fill="black" fill-rule="evenodd" d="M 319.436,423.979 L 318.551,422.983 L 316.779,420.989 L 314.012,427.909 L 321.208,425.972 Z "/>
				<path id="dp_path010" fill="black" d="M 363.335,383.163 L 318.551,422.981 L 319.436,423.979 L 364.22,384.16 Z "/>
			</g>
		</g>
		<g id="dp_group011">
			<g id="dp_group012">
				<path id="dp_path013" fill="black" fill-rule="evenodd" d="M 365.111,471.981 L 362.444,471.981 L 357.111,471.981 L 363.777,485.315 L 370.444,471.981 Z "/>
				<path id="dp_path014" fill="black" d="M 362.443,383.661 L 362.443,471.981 L 365.109,471.981 L 365.109,383.661 Z "/>
			</g>
		</g>
		<path id="dp_path015" fill="none" fill-rule="evenodd" stroke="black" stroke-width="1.33333" stroke-dasharray="3.2,3.2" d="M 314.009,428.473 L 364.205,484.931"/>
		<g id="dp_group016">
			<g id="dp_group017">
				<path id="dp_path018" fill="black" fill-rule="evenodd" d="M 410.041,434.692 L 409.045,435.577 L 407.052,437.349 L 413.972,440.116 L 412.035,432.92 Z "/>
				<path id="dp_path019" fill="black" d="M 363.277,384.103 L 409.044,435.577 L 410.041,434.692 L 364.275,383.217 Z "/>
			</g>
		</g>
		<path id="dp_path020" fill="none" fill-rule="evenodd" stroke="black" stroke-width="1.33333" stroke-dasharray="3.2,3.2" d="M 364.207,484.367 L 413.973,440.119"/>
		<path id="dp_path021" fill="black" fill-rule="evenodd" d="M 375.368,429.517 C 375.943,429.504 376.523,429.309 377.101,428.932 C 377.665,428.571 378.203,428.085 378.713,427.475 C 379.753,426.197 380.561,424.731 381.136,423.076 C 381.413,422.26 381.612,421.468 381.729,420.7 C 381.828,419.935 381.825,419.244 381.719,418.629 C 381.624,418.016 381.419,417.524 381.104,417.156 C 380.775,416.793 380.325,416.613 379.753,416.613 C 379.195,416.613 378.632,416.793 378.069,417.156 C 377.504,417.524 376.959,418.016 376.436,418.629 C 375.365,419.925 374.545,421.407 373.979,423.076 C 373.416,424.731 373.232,426.197 373.431,427.475 C 373.537,428.085 373.751,428.571 374.068,428.932 C 374.38,429.309 374.812,429.504 375.368,429.517 Z M 379.311,423.095 L 378.927,424.224 C 378.432,425.683 377.903,426.843 377.341,427.705 C 376.752,428.6 376.145,429.052 375.523,429.065 C 374.931,429.052 374.645,428.6 374.671,427.705 C 374.667,426.843 374.911,425.683 375.405,424.224 L 375.791,423.095 Z M 376.036,422.376 L 376.499,421.012 C 376.853,419.967 377.301,419.06 377.843,418.292 C 378.119,417.916 378.407,417.615 378.703,417.389 C 378.997,417.173 379.295,417.065 379.6,417.065 C 379.928,417.065 380.165,417.173 380.313,417.389 C 380.456,417.615 380.537,417.916 380.559,418.292 C 380.555,419.06 380.375,419.967 380.019,421.012 L 379.555,422.376 Z "/>
		<text id="dp_text001" transform="matrix(1,0,0,1,331.257,337.15)" xml:space="preserve" fill="#2f06cf" font-family="Arial" font-size="21" font-weight="400" font-style="italic" x="0" y="0">L </text>
		<text id="dp_text002" transform="matrix(1,0,0,1,348.967,500.18)" xml:space="preserve" fill="black" font-family="Arial" font-size="21" font-weight="400" font-style="italic" x="0" y="0">m</text>
		<text id="dp_text003" transform="matrix(1,0,0,1,348.967,500.18)" xml:space="preserve" fill="black" font-family="Arial" font-size="21" font-weight="700" x="17.0827" y="0">g</text>
		<text id="dp_text004" transform="matrix(1,0,0,1,348.967,500.18)" xml:space="preserve" fill="black" font-family="Arial" font-size="21" font-weight="400" font-style="italic" x="29.6213" y="0"> </text>
		<g id="dp_group026">
			<text id="dp_text005" transform="matrix(1,2.77556e-016,-2.22045e-016,1,394.69,409.647)" xml:space="preserve" fill="black" font-family="Arial" font-size="15" font-weight="400" font-style="italic" x="0" y="0">mg</text>
			<text id="dp_text006" transform="matrix(1,2.77556e-016,-2.22045e-016,1,394.69,409.647)" xml:space="preserve" fill="black" font-family="Arial" font-size="15" font-weight="400" x="21.176" y="0">cos</text>
			<text id="dp_text007" transform="matrix(1,2.77556e-016,-2.22045e-016,1,394.69,409.647)" xml:space="preserve" fill="black" font-family="Arial" font-size="15" font-weight="400" font-style="italic" x="44.9547" y="0"> </text>
			<path id="dp_path030" fill="black" fill-rule="evenodd" d="M 443.976,409.919 C 444.403,409.909 444.833,409.765 445.264,409.484 C 445.681,409.216 446.08,408.856 446.46,408.401 C 447.232,407.455 447.832,406.365 448.259,405.137 C 448.464,404.531 448.612,403.943 448.699,403.373 C 448.772,402.804 448.769,402.291 448.691,401.836 C 448.621,401.38 448.468,401.015 448.235,400.743 C 447.991,400.473 447.657,400.339 447.232,400.339 C 446.817,400.339 446.4,400.473 445.981,400.743 C 445.561,401.015 445.157,401.38 444.769,401.836 C 443.975,402.797 443.365,403.897 442.945,405.137 C 442.528,406.365 442.391,407.455 442.537,408.401 C 442.617,408.856 442.776,409.216 443.011,409.484 C 443.243,409.765 443.564,409.909 443.976,409.919 Z M 446.904,405.151 L 446.619,405.989 C 446.251,407.072 445.857,407.933 445.441,408.573 C 445.004,409.237 444.553,409.573 444.091,409.583 C 443.651,409.573 443.44,409.237 443.459,408.573 C 443.456,407.933 443.637,407.072 444.004,405.989 L 444.291,405.151 Z M 444.472,404.617 L 444.816,403.604 C 445.079,402.829 445.412,402.155 445.813,401.585 C 446.019,401.307 446.232,401.083 446.452,400.915 C 446.671,400.755 446.892,400.675 447.119,400.675 C 447.361,400.675 447.537,400.755 447.648,400.915 C 447.753,401.083 447.815,401.307 447.831,401.585 C 447.827,402.155 447.693,402.829 447.429,403.604 L 447.084,404.617 Z "/>
		</g>
		<g id="dp_group031">
			<text id="dp_text008" transform="matrix(1,0,0,1,281.636,406.192)" xml:space="preserve" fill="black" font-family="Arial" font-size="15" font-weight="400" font-style="italic" x="0" y="0">mg</text>
			<text id="dp_text009" transform="matrix(1,0,0,1,281.636,406.192)" xml:space="preserve" fill="black" font-family="Arial" font-size="15" font-weight="400" x="21.176" y="0">sin</text>
			<text id="dp_text010" transform="matrix(1,0,0,1,281.636,406.192)" xml:space="preserve" fill="black" font-family="Arial" font-size="15" font-weight="400" font-style="italic" x="40.6893" y="0"> </text>
			<path id="dp_path035" fill="black" fill-rule="evenodd" d="M 326.468,406.463 C 326.895,406.453 327.325,406.309 327.756,406.028 C 328.173,405.76 328.572,405.4 328.952,404.947 C 329.724,403.999 330.324,402.911 330.751,401.681 C 330.956,401.075 331.104,400.488 331.191,399.917 C 331.264,399.349 331.261,398.836 331.183,398.38 C 331.113,397.924 330.96,397.56 330.727,397.287 C 330.483,397.017 330.149,396.883 329.724,396.883 C 329.309,396.883 328.892,397.017 328.473,397.287 C 328.053,397.56 327.649,397.924 327.261,398.38 C 326.467,399.341 325.857,400.443 325.437,401.681 C 325.02,402.911 324.883,403.999 325.029,404.947 C 325.109,405.4 325.268,405.76 325.503,406.028 C 325.735,406.309 326.056,406.453 326.468,406.463 Z M 329.396,401.696 L 329.111,402.533 C 328.743,403.616 328.349,404.477 327.933,405.117 C 327.496,405.783 327.045,406.119 326.583,406.128 C 326.143,406.119 325.932,405.783 325.951,405.117 C 325.948,404.477 326.129,403.616 326.496,402.533 L 326.783,401.696 Z M 326.964,401.161 L 327.308,400.148 C 327.571,399.373 327.904,398.7 328.305,398.129 C 328.511,397.851 328.724,397.627 328.944,397.459 C 329.163,397.3 329.384,397.219 329.611,397.219 C 329.853,397.219 330.029,397.3 330.14,397.459 C 330.245,397.627 330.307,397.851 330.323,398.129 C 330.319,398.7 330.185,399.373 329.921,400.148 L 329.576,401.161 Z "/>
		</g>
		<path id="dp_path036" fill="white" fill-rule="evenodd" stroke="black" stroke-width="1.33333" d="M 268.397,276.716 C 262.509,282.027 254.841,284.936 246.912,284.867 L 247.188,253.201 Z "/>
		<path id="dp_path037" fill="black" fill-rule="evenodd" d="M 257.448,301.071 C 258.023,301.057 258.603,300.863 259.181,300.485 C 259.745,300.124 260.283,299.639 260.793,299.028 C 261.833,297.751 262.641,296.284 263.216,294.629 C 263.493,293.813 263.692,293.021 263.809,292.253 C 263.908,291.488 263.905,290.797 263.799,290.183 C 263.704,289.569 263.499,289.077 263.184,288.709 C 262.855,288.347 262.405,288.167 261.833,288.167 C 261.275,288.167 260.712,288.347 260.149,288.709 C 259.584,289.077 259.039,289.569 258.516,290.183 C 257.445,291.479 256.625,292.96 256.059,294.629 C 255.496,296.284 255.312,297.751 255.511,299.028 C 255.617,299.639 255.831,300.124 256.148,300.485 C 256.46,300.863 256.892,301.057 257.448,301.071 Z M 261.391,294.648 L 261.007,295.777 C 260.512,297.236 259.983,298.396 259.421,299.259 C 258.832,300.153 258.225,300.605 257.603,300.619 C 257.011,300.605 256.725,300.153 256.751,299.259 C 256.747,298.396 256.991,297.236 257.485,295.777 L 257.871,294.648 Z M 258.116,293.929 L 258.579,292.565 C 258.933,291.52 259.381,290.613 259.923,289.845 C 260.199,289.469 260.487,289.168 260.783,288.943 C 261.077,288.727 261.375,288.619 261.68,288.619 C 262.008,288.619 262.245,288.727 262.393,288.943 C 262.536,289.168 262.617,289.469 262.639,289.845 C 262.635,290.613 262.455,291.52 262.099,292.565 L 261.635,293.929 Z "/>
		<path id="dp_path038" fill="none" fill-rule="evenodd" stroke="#2f06cf" stroke-width="2.66667" d="M 245.933,251.119 L 363.776,383.661"/>
		<path id="dp_path039" fill="#fa8909" fill-rule="evenodd" stroke="none" stroke-width="1.33333" d="M 355.097,373.897 C 360.488,369.103 368.747,369.588 373.541,374.98 C 378.336,380.373 377.851,388.632 372.459,393.425 C 367.068,398.219 358.809,397.735 354.015,392.341 C 349.22,386.948 349.705,378.691 355.097,373.897 Z "/>
		<text id="dp_text011" transform="matrix(1,2.77556e-016,-2.22045e-016,1,357.438,389.14)" xml:space="preserve" fill="black" font-family="Arial" font-size="15" font-weight="400" font-style="italic" x="0" y="0">m </text>
	</g>
</svg>